<?xml version="1.0" standalone="no"?>
<!DOCTYPE svg PUBLIC "-//W3C//DTD SVG 20010904//EN"
 "http://www.w3.org/TR/2001/REC-SVG-20010904/DTD/svg10.dtd">
<svg version="1.0" xmlns="http://www.w3.org/2000/svg"
 width="981.000000pt" height="980.000000pt" viewBox="0 0 981.000000 980.000000"
 preserveAspectRatio="xMidYMid meet">

<g transform="translate(0.000000,980.000000) scale(0.100000,-0.100000)"
fill="#000000" stroke="none">
<path d="M4070 9794 c-409 -29 -756 -96 -1125 -219 -955 -316 -1748 -941
-2291 -1805 -100 -159 -275 -505 -343 -680 -300 -764 -383 -1552 -245 -2350
250 -1454 1272 -2696 2682 -3259 443 -177 968 -290 1372 -294 134 -2 136 -2
202 31 129 63 201 179 201 322 0 105 -29 178 -102 251 -77 76 -138 99 -301
110 -670 47 -1241 240 -1790 604 -805 535 -1356 1344 -1540 2265 -56 279 -64
369 -65 705 0 339 10 446 66 726 209 1042 888 1960 1813 2449 382 203 787 331
1231 391 195 26 572 36 767 20 890 -74 1660 -431 2258 -1047 561 -578 903
-1295 1016 -2129 25 -183 25 -666 1 -850 -58 -432 -190 -850 -384 -1215 -289
-542 -683 -979 -1201 -1330 -102 -69 -130 -98 -170 -174 -24 -45 -27 -62 -27
-151 0 -89 3 -106 28 -157 37 -75 98 -135 177 -172 55 -26 76 -30 146 -30 75
0 89 3 156 37 78 39 255 163 402 282 l91 74 1075 -1073 c1210 -1207 1110
-1120 1270 -1120 72 -1 94 4 145 27 181 84 261 285 185 467 -21 50 -128 160
-1097 1130 l-1073 1075 69 86 c450 559 759 1236 885 1939 78 433 86 908 25
1350 -195 1401 -1073 2631 -2327 3259 -475 238 -952 378 -1487 436 -134 15
-581 27 -695 19z"/>
<path d="M5146 1995 c-144 -39 -195 -64 -250 -126 -64 -71 -91 -140 -91 -239
0 -72 5 -94 28 -145 55 -119 173 -202 301 -212 47 -4 91 2 190 26 71 17 148
40 172 50 62 28 131 96 167 166 29 55 32 68 32 155 0 88 -3 101 -33 162 -60
122 -167 190 -307 195 -66 2 -103 -4 -209 -32z"/>
</g>
</svg>
